# Blender v3.0.1 OBJ File: 'box.blend'
# www.blender.org
mtllib box.mtl
o Cube
v 6.900000 1.200000 -3.500000
v 6.900000 -1.200000 -3.500000
v 6.900000 1.200000 3.500000
v 6.900000 -1.200000 3.500000
v -6.900000 1.200000 -3.500000
v -6.900000 -1.200000 -3.500000
v -6.900000 1.200000 3.500000
v -6.900000 -1.200000 3.500000
vt 0.983956 0.070473
vt 0.977867 0.969650
vt 0.695073 0.981996
vt 0.684728 0.066358
vt 0.305173 0.192628
vt 0.403375 0.200405
vt 0.391232 0.976668
vt 0.294547 0.981853
vt 0.154289 0.523591
vt 0.259716 0.516722
vt 0.260475 0.989671
vt 0.154683 0.989671
vt 0.430371 0.970227
vt 0.437880 0.258227
vt 0.666194 0.264219
vt 0.660203 0.971033
vt 0.156411 0.520739
vt 0.257650 0.519443
vt 0.258409 0.983319
vt 0.154893 0.985911
vt 0.125500 0.976045
vt 0.010486 0.980676
vt 0.021488 0.062021
vt 0.135326 0.069736
vn 0.0000 1.0000 0.0000
vn 0.0000 0.0000 1.0000
vn -1.0000 0.0000 0.0000
vn 0.0000 -1.0000 0.0000
vn 1.0000 0.0000 0.0000
vn 0.0000 0.0000 -1.0000
usemtl Material
s off
f 1/1/1 5/2/1 7/3/1 3/4/1
f 4/5/2 3/6/2 7/7/2 8/8/2
f 8/9/3 7/10/3 5/11/3 6/12/3
f 6/13/4 2/14/4 4/15/4 8/16/4
f 2/17/5 1/18/5 3/19/5 4/20/5
f 6/21/6 5/22/6 1/23/6 2/24/6
